# xmcd
#
# Track frame offsets:
#	150
#	17555
#	37080
#	54330
#	69555
#	84760
#	102132
#	114467
#	130692
#	145825
#	165575
#	178667
#	192600
#	208890
#	225175
#	234457
#
# Disc length: 3267
#
# Revision: 1
# Processed by: cddbd v1.5.1PL0 Copyright (c) Steve Scherf et al.
# Submitted via: VisiTrax 2.9.5.180 - For more info visit www.synapsa.com
# Normalized: r0:DSETVAR1
#
DISCID=cf0cc110
DTITLE=Various Artist - CDX 115 August 1995
DYEAR=1995
DGENRE=
TTITLE0=Hank Williams Jr. - Daytona nights
TTITLE1=Vince Gill - Go rest on that mountain
TTITLE2=Radney Foster - If it were me
TTITLE3=Neal McCoy - If I was a drinkin' man
TTITLE4=Ron Wallace - I'm listening now
TTITLE5=George Ducas - Kisses don't lie
TTITLE6=Little Texas - Life goes on
TTITLE7=Philip Claypool - She kicked my dog
TTITLE8=Aaron Tippin - That's as close as I'll get to loving you
TTITLE9=Highwaymen - Waiting for a long time
TTITLE10=Wesley Dennis - Who's counting
TTITLE11=Hank Williams Jr. - Wild thing
TTITLE12=Howard Letovsky - A real man like mom
TTITLE13=Howard Letovsky - A real man like mom
TTITLE14=Hank Williams - Alone and forsaken
TTITLE15=Leroy Van Dyke - Walk on by
EXTD=
EXTT0=
EXTT1=
EXTT2=
EXTT3=
EXTT4=
EXTT5=
EXTT6=
EXTT7=
EXTT8=
EXTT9=
EXTT10=
EXTT11=
EXTT12=
EXTT13=
EXTT14=
EXTT15=
PLAYORDER=
